<svg id="wheel" xmlns="http://www.w3.org/2000/svg" viewBox="0 0 755.99 754.34"><defs><style>.cls-1{fill:#da1d23;}.cls-2{fill:#dd4c51;}.cls-113,.cls-3{fill:#3e0317;}.cls-114,.cls-4{fill:#e52968;}.cls-115,.cls-5{fill:#6469b0;}.cls-116,.cls-6{fill:#ef2d36;}.cls-7{fill:#c94a44;}.cls-117,.cls-8{fill:#b53b54;}.cls-118,.cls-9{fill:#a5446f;}.cls-10{fill:#f2684c;}.cls-11,.cls-119{fill:#d07c36;}.cls-12,.cls-120{fill:#e73451;}.cls-121,.cls-13{fill:#e65656;}.cls-14{fill:#f89a1c;}.cls-15{fill:#aeb92c;}.cls-124,.cls-16{fill:#4eb947;}.cls-17{fill:#f68a5c;}.cls-126,.cls-18{fill:#baa635;}.cls-19{fill:#f7a129;}.cls-127,.cls-20{fill:#f26355;}.cls-128,.cls-21{fill:#e2631e;}.cls-22{fill:#fde402;}.cls-130,.cls-23{fill:#7eb138;}.cls-24{fill:#ebb40d;}.cls-25{fill:#e1c315;}.cls-131,.cls-26{fill:#9ea718;}.cls-132,.cls-27{fill:#94a770;}.cls-28{fill:#d0b34f;}.cls-134,.cls-29{fill:#8eb646;}.cls-30{fill:#faef08;}.cls-31{fill:#c1ba09;}.cls-32{fill:#b09733;}.cls-137,.cls-33{fill:#8f1b53;}.cls-138,.cls-34{fill:#b34039;}.cls-139,.cls-35{fill:#ba9232;}.cls-140,.cls-36{fill:#8b6439;}.cls-37{fill:#197a2f;}.cls-38{fill:#a2b028;}.cls-39{fill:#708933;}.cls-40{fill:#3aa255;}.cls-41{fill:#a2bc2b;}.cls-143,.cls-42{fill:#62aa3c;}.cls-144,.cls-43{fill:#03a653;}.cls-145,.cls-44{fill:#048549;}.cls-146,.cls-45{fill:#27b44b;}.cls-147,.cls-46{fill:#a3a830;}.cls-148,.cls-47{fill:#7ac141;}.cls-48{fill:#5e9a80;}.cls-49{fill:#0aa3b5;}.cls-50{fill:#9db2b7;}.cls-149,.cls-51{fill:#8b8c90;}.cls-52{fill:#bdb175;}.cls-53{fill:#fefef4;}.cls-152,.cls-54{fill:#744f02;}.cls-154,.cls-55{fill:#a3a36f;}.cls-56{fill:#c9b583;}.cls-156,.cls-57{fill:#988847;}.cls-157,.cls-58{fill:#9d977f;}.cls-158,.cls-59{fill:#cc7b6a;}.cls-159,.cls-60{fill:#db646a;}.cls-61{fill:#76c0cb;}.cls-160,.cls-62{fill:#80a89d;}.cls-63{fill:#def2fd;}.cls-162,.cls-64{fill:#7a9bae;}.cls-163,.cls-65{fill:#039fb8;}.cls-164,.cls-66{fill:#5e777b;}.cls-165,.cls-67{fill:#120c0c;}.cls-68{fill:#c94930;}.cls-69{fill:#caa465;}.cls-70{fill:#dfbd7e;}.cls-71{fill:#be8663;}.cls-167,.cls-72{fill:#b9a449;}.cls-168,.cls-73{fill:#899893;}.cls-169,.cls-74{fill:#a1743b;}.cls-170,.cls-75{fill:#894810;}.cls-76{fill:#ddaf61;}.cls-171,.cls-77{fill:#b7906f;}.cls-78{fill:#eb9d5e;}.cls-79{fill:#ad213e;}.cls-80{fill:#794652;}.cls-81{fill:#cc3c42;}.cls-82{fill:#b14d57;}.cls-173,.cls-83{fill:#c78935;}.cls-174,.cls-84{fill:#8c292c;}.cls-175,.cls-85{fill:#e5762e;}.cls-176,.cls-86{fill:#a16c5a;}.cls-87{fill:#a87b64;}.cls-88{fill:#c78869;}.cls-89{fill:#d4ad13;}.cls-178,.cls-90{fill:#9d5433;}.cls-91{fill:#c89f83;}.cls-92{fill:#bb764c;}.cls-180,.cls-93{fill:#692a19;}.cls-181,.cls-94{fill:#470603;}.cls-95{fill:#e65832;}.cls-96{fill:#d45a59;}.cls-182,.cls-97{fill:#310c0f;}.cls-183,.cls-98{fill:#ae341f;}.cls-184,.cls-99{fill:#d78823;}.cls-100,.cls-185{fill:#da5c1f;}.cls-101{fill:#f89a80;}.cls-102{fill:#f37674;}.cls-103{fill:#e75b68;}.cls-104{fill:#d0545f;}.cls-105{fill:#da0d68;}.cls-106{fill:#975e6d;}.cls-107{fill:#e0719c;}.cls-108{fill:#f99e1b;}.cls-109,.cls-188{fill:#ef5a78;}.cls-110{fill:#f7f1bd;}.cls-111,.cls-112,.cls-113,.cls-114,.cls-115,.cls-116,.cls-117,.cls-118,.cls-119,.cls-120,.cls-121,.cls-122,.cls-123,.cls-124,.cls-125,.cls-126,.cls-127,.cls-128,.cls-129,.cls-130,.cls-131,.cls-132,.cls-133,.cls-134,.cls-135,.cls-136,.cls-137,.cls-138,.cls-139,.cls-140,.cls-142,.cls-143,.cls-144,.cls-145,.cls-146,.cls-147,.cls-148,.cls-149,.cls-150,.cls-151,.cls-152,.cls-154,.cls-155,.cls-156,.cls-157,.cls-158,.cls-159,.cls-160,.cls-161,.cls-162,.cls-163,.cls-164,.cls-165,.cls-167,.cls-168,.cls-169,.cls-170,.cls-171,.cls-172,.cls-173,.cls-174,.cls-175,.cls-176,.cls-177,.cls-178,.cls-179,.cls-180,.cls-181,.cls-182,.cls-183,.cls-184,.cls-185,.cls-187,.cls-188,.cls-189{isolation:isolate;}.cls-112,.cls-113,.cls-114,.cls-115,.cls-116,.cls-117,.cls-118,.cls-119,.cls-120,.cls-121,.cls-122,.cls-123,.cls-124,.cls-125,.cls-126,.cls-127,.cls-128,.cls-129,.cls-130,.cls-131,.cls-132,.cls-133,.cls-134,.cls-135,.cls-136,.cls-137,.cls-138,.cls-139,.cls-140,.cls-142,.cls-143,.cls-144,.cls-145,.cls-146,.cls-147,.cls-148,.cls-149,.cls-150,.cls-151,.cls-152,.cls-154,.cls-155,.cls-156,.cls-157,.cls-158,.cls-159,.cls-160,.cls-161,.cls-162,.cls-163,.cls-164,.cls-165,.cls-167,.cls-168,.cls-169,.cls-170,.cls-171,.cls-172,.cls-173,.cls-174,.cls-175,.cls-176,.cls-177,.cls-178,.cls-179,.cls-180,.cls-181,.cls-182,.cls-183,.cls-184,.cls-185,.cls-187,.cls-188,.cls-189{font-size:12px;font-family:ArialMT, Arial;}.cls-112{fill:#fff;}.cls-122{fill:#794b0d;}.cls-123{fill:#555a15;}.cls-125{fill:#78432d;}.cls-129{fill:#7b6f00;}.cls-133{fill:#655726;}.cls-135{fill:#7a7503;}.cls-136{fill:#5e5b04;}.cls-141{letter-spacing:-0.06em;}.cls-142{fill:#4f5c15;}.cls-150{fill:#5c5639;}.cls-151{fill:#7c7c77;}.cls-153{letter-spacing:-0.02em;}.cls-155{fill:#625840;}.cls-161{fill:#6c767b;}.cls-166{letter-spacing:-0.11em;}.cls-172{fill:#734c2e;}.cls-177{fill:#675409;}.cls-179{fill:#614d40;}.cls-186{letter-spacing:-0.07em;}.cls-187{fill:#7a4d0d;}.cls-189{fill:#79765c;}</style></defs><title>wheel-copy-exported</title><path id="path-1" class="cls-1" d="M390,219.43A170.57,170.57,0,0,1,552.75,338.92L456.1,369.26A69.28,69.28,0,0,0,390,320.73Z" transform="translate(-23.83 -19.37)"/><path id="path-2" class="cls-2" d="M390,101.05a288.74,288.74,0,0,1,80.27,11.37L437.38,226.14A170.68,170.68,0,0,0,390,219.43Z" transform="translate(-23.83 -19.37)"/><path id="path-3" class="cls-3" d="M390,80q10.9,0,21.8.77l-1.48,21q-10.14-.72-20.32-.71Z" transform="translate(-23.83 -19.37)"/><path id="path-4" class="cls-4" d="M411.8,80.77q10.88.77,21.69,2.3l-3,20.83q-10.06-1.43-20.21-2.14Z" transform="translate(-23.83 -19.37)"/><path id="path-5" class="cls-5" d="M433.49,83.07q10.8,1.53,21.47,3.81l-4.41,20.58q-9.94-2.13-20-3.56Z" transform="translate(-23.83 -19.37)"/><path id="path-6" class="cls-6" d="M455,86.88q10.67,2.3,21.15,5.32l-5.84,20.22q-9.78-2.82-19.72-5Z" transform="translate(-23.83 -19.37)"/><path id="path-7" class="cls-7" d="M470.27,112.42a290.71,290.71,0,0,1,38.14,14l-48.51,108a170.07,170.07,0,0,0-22.52-8.27Z" transform="translate(-23.83 -19.37)"/><path id="path-8" class="cls-8" d="M476.11,92.2q10.49,3,20.73,6.79l-7.25,19.76q-9.55-3.51-19.32-6.33Z" transform="translate(-23.83 -19.37)"/><path id="path-9" class="cls-9" d="M496.84,99q10.25,3.77,20.2,8.24l-8.63,19.19q-9.27-4.17-18.82-7.67Z" transform="translate(-23.83 -19.37)"/><path id="path-10" class="cls-10" d="M508.41,126.42A289,289,0,0,1,630.81,230.3l-98.66,65.43a170.51,170.51,0,0,0-72.25-61.32Z" transform="translate(-23.83 -19.37)"/><path id="path-11" class="cls-11" d="M517,107.23q9.94,4.47,19.57,9.63l-10,18.54q-9-4.8-18.24-9Z" transform="translate(-23.83 -19.37)"/><path id="path-12" class="cls-12" d="M536.61,116.86q9.6,5.16,18.84,11l-11.23,17.8q-8.61-5.43-17.57-10.24Z" transform="translate(-23.83 -19.37)"/><path id="path-13" class="cls-13" d="M555.45,127.84q9.22,5.82,18,12.28l-12.45,17q-8.21-6-16.8-11.45Z" transform="translate(-23.83 -19.37)"/><path id="path-14" class="cls-14" d="M573.47,140.12q8.79,6.47,17.12,13.52L577,169.69q-7.76-6.58-16-12.6Z" transform="translate(-23.83 -19.37)"/><path id="path-15" class="cls-15" d="M590.59,153.64q8.31,7.06,16.12,14.69l-14.71,15q-7.28-7.11-15-13.69Z" transform="translate(-23.83 -19.37)"/><path id="path-16" class="cls-16" d="M606.71,168.33q7.8,7.63,15,15.79L606,198.1q-6.76-7.6-14-14.72Z" transform="translate(-23.83 -19.37)"/><path id="path-17" class="cls-17" d="M621.76,184.12q7.25,8.16,13.9,16.8L619,213.76q-6.19-8.06-13-15.66Z" transform="translate(-23.83 -19.37)"/><path id="path-18" class="cls-18" d="M635.66,200.92q6.66,8.66,12.69,17.74L630.81,230.3q-5.62-8.48-11.83-16.54Z" transform="translate(-23.83 -19.37)"/><path id="path-19" class="cls-19" d="M630.81,230.3a289.05,289.05,0,0,1,34.89,73.18l-113,35.44a170.63,170.63,0,0,0-20.6-43.19Z" transform="translate(-23.83 -19.37)"/><path id="path-20" class="cls-20" d="M648.35,218.66q6,9.1,11.41,18.59l-18.32,10.37q-5-8.84-10.63-17.32Z" transform="translate(-23.83 -19.37)"/><path id="path-21" class="cls-21" d="M659.76,237.25q5.37,9.5,10.07,19.35l-19,9.06q-4.38-9.18-9.39-18Z" transform="translate(-23.83 -19.37)"/><path id="path-22" class="cls-22" d="M669.83,256.6q4.7,9.84,8.69,20l-19.59,7.69q-3.72-9.45-8.1-18.64Z" transform="translate(-23.83 -19.37)"/><path id="path-23" class="cls-23" d="M678.52,276.61q4,10.14,7.26,20.56l-20.08,6.31q-3-9.71-6.77-19.18Z" transform="translate(-23.83 -19.37)"/><path id="path-24" class="cls-24" d="M552.75,338.92a170.61,170.61,0,0,1-5.62,117.44L453.82,417a69.34,69.34,0,0,0,2.28-47.69Z" transform="translate(-23.83 -19.37)"/><path id="path-25" class="cls-25" d="M665.7,303.48a289,289,0,0,1,11.24,120.57L559.38,410.1a170.66,170.66,0,0,0-6.63-71.18Z" transform="translate(-23.83 -19.37)"/><path id="path-26" class="cls-26" d="M685.78,297.17q3.26,10.41,5.79,21l-20.47,4.87q-2.36-9.88-5.4-19.59Z" transform="translate(-23.83 -19.37)"/><path id="path-27" class="cls-27" d="M691.57,318.2q2.52,10.6,4.3,21.38L675.11,343q-1.67-10-4-19.94Z" transform="translate(-23.83 -19.37)"/><path id="path-28" class="cls-28" d="M695.87,339.58q1.78,10.77,2.79,21.63l-20.95,2q-.94-10.12-2.6-20.16Z" transform="translate(-23.83 -19.37)"/><path id="path-29" class="cls-29" d="M698.66,361.21q1,10.88,1.26,21.78l-21,.47q-.23-10.15-1.17-20.29Z" transform="translate(-23.83 -19.37)"/><path id="path-30" class="cls-30" d="M699.92,383q.26,10.9-.27,21.81l-21-1q.5-10.16.26-20.33Z" transform="translate(-23.83 -19.37)"/><path id="path-31" class="cls-31" d="M699.65,404.8q-.52,10.89-1.81,21.73l-20.9-2.48q1.2-10.1,1.68-20.26Z" transform="translate(-23.83 -19.37)"/><path id="path-32" class="cls-32" d="M676.94,424.05a289.16,289.16,0,0,1-20.75,78.37L547.13,456.36a170.14,170.14,0,0,0,12.25-46.26Z" transform="translate(-23.83 -19.37)"/><path id="path-33" class="cls-33" d="M697.84,426.53q-1.29,10.85-3.33,21.56l-20.67-3.95c1.27-6.65,2.3-13.36,3.1-20.09Z" transform="translate(-23.83 -19.37)"/><path id="path-34" class="cls-34" d="M694.51,448.09q-2,10.71-4.84,21.27L669.33,464q2.59-9.83,4.51-19.83Z" transform="translate(-23.83 -19.37)"/><path id="path-35" class="cls-35" d="M689.67,469.36q-2.79,10.54-6.32,20.87l-19.92-6.8q3.3-9.63,5.9-19.46Z" transform="translate(-23.83 -19.37)"/><path id="path-36" class="cls-36" d="M683.35,490.23q-3.52,10.32-7.77,20.38l-19.39-8.19q4-9.36,7.24-19Z" transform="translate(-23.83 -19.37)"/><path id="path-37" class="cls-37" d="M547.13,456.36a170.52,170.52,0,0,1-91.95,91.27L416.47,454A69.3,69.3,0,0,0,453.82,417Z" transform="translate(-23.83 -19.37)"/><path id="path-38" class="cls-38" d="M656.19,502.42q-5.37,12.72-11.94,24.87L540.09,471q3.87-7.16,7-14.68Z" transform="translate(-23.83 -19.37)"/><path id="path-39" class="cls-39" d="M644.25,527.29q-6.56,12.15-14.25,23.62L531.68,485q4.53-6.76,8.41-13.95Z" transform="translate(-23.83 -19.37)"/><path id="path-40" class="cls-40" d="M630,550.91a288.88,288.88,0,0,1-104.63,94.37L469.91,540.7A170.65,170.65,0,0,0,531.68,485Z" transform="translate(-23.83 -19.37)"/><path id="path-41" class="cls-41" d="M647.48,562.63q-6.08,9.06-12.77,17.68L618.1,567.39q6.24-8,11.9-16.48Z" transform="translate(-23.83 -19.37)"/><path id="path-42" class="cls-42" d="M634.71,580.31q-6.71,8.61-14,16.73l-15.66-14q6.8-7.57,13-15.6Z" transform="translate(-23.83 -19.37)"/><path id="path-43" class="cls-43" d="M620.72,597q-7.29,8.13-15.13,15.71L591,597.63q7.31-7.07,14.1-14.64Z" transform="translate(-23.83 -19.37)"/><path id="path-44" class="cls-44" d="M605.59,612.75q-7.83,7.59-16.19,14.61l-13.54-16.11q7.78-6.54,15.1-13.62Z" transform="translate(-23.83 -19.37)"/><path id="path-45" class="cls-45" d="M589.4,627.36q-8.35,7-17.19,13.44l-12.37-17q8.24-6,16-12.52Z" transform="translate(-23.83 -19.37)"/><path id="path-46" class="cls-46" d="M572.21,640.8q-8.82,6.41-18.08,12.19L543,635.13q8.63-5.39,16.85-11.36Z" transform="translate(-23.83 -19.37)"/><path id="path-47" class="cls-47" d="M554.13,653q-9.25,5.78-18.9,10.89l-9.86-18.6q9-4.75,17.62-10.15Z" transform="translate(-23.83 -19.37)"/><path id="path-48" class="cls-48" d="M525.37,645.28q-12.2,6.47-25,11.75l-45.23-109.4q7.53-3.12,14.73-6.93Z" transform="translate(-23.83 -19.37)"/><path id="path-49" class="cls-49" d="M455.18,547.63a170.56,170.56,0,0,1-179.42-31l67.84-75.22A69.29,69.29,0,0,0,416.47,454Z" transform="translate(-23.83 -19.37)"/><path id="path-50" class="cls-50" d="M500.41,657a289,289,0,0,1-199,8l36.3-112.68a170.61,170.61,0,0,0,117.48-4.73Z" transform="translate(-23.83 -19.37)"/><path id="path-51" class="cls-51" d="M508.45,676.48q-10.08,4.17-20.43,7.62l-6.66-20q9.64-3.21,19.05-7.1Z" transform="translate(-23.83 -19.37)"/><path id="path-52" class="cls-52" d="M488,684.1q-10.35,3.45-20.93,6.16l-5.23-20.38q9.86-2.53,19.5-5.75Z" transform="translate(-23.83 -19.37)"/><path id="path-53" class="cls-53" d="M467.09,690.26q-10.56,2.72-21.3,4.68L442,674.24q10-1.83,19.86-4.36Z" transform="translate(-23.83 -19.37)"/><path id="path-54" class="cls-54" d="M445.79,694.94q-10.73,2-21.58,3.17l-2.32-20.92q10.11-1.12,20.11-3Z" transform="translate(-23.83 -19.37)"/><path id="path-55" class="cls-55" d="M424.21,698.11q-10.84,1.2-21.75,1.64l-.84-21q10.15-.4,20.27-1.53Z" transform="translate(-23.83 -19.37)"/><path id="path-56" class="cls-56" d="M402.46,699.75q-10.89.43-21.81.11l.64-21q10.15.31,20.33-.1Z" transform="translate(-23.83 -19.37)"/><path id="path-57" class="cls-57" d="M380.65,699.86q-10.9-.33-21.76-1.43L361,677.5q10.11,1,20.29,1.32Z" transform="translate(-23.83 -19.37)"/><path id="path-58" class="cls-58" d="M358.89,698.43q-10.86-1.09-21.61-2.95l3.58-20.74q10,1.74,20.14,2.76Z" transform="translate(-23.83 -19.37)"/><path id="path-59" class="cls-59" d="M337.28,695.48q-10.75-1.85-21.35-4.46l5-20.44q9.87,2.43,19.9,4.16Z" transform="translate(-23.83 -19.37)"/><path id="path-60" class="cls-60" d="M315.93,691q-10.59-2.61-21-5.95l6.45-20q9.68,3.11,19.56,5.54Z" transform="translate(-23.83 -19.37)"/><path id="path-61" class="cls-61" d="M301.4,665a289,289,0,0,1-104.93-60.47l79.29-87.91a170.53,170.53,0,0,0,61.94,35.7Z" transform="translate(-23.83 -19.37)"/><path id="path-62" class="cls-62" d="M295,685.07q-10.4-3.35-20.52-7.42l7.85-19.53q9.44,3.79,19.12,6.92Z" transform="translate(-23.83 -19.37)"/><path id="path-63" class="cls-63" d="M274.43,677.65q-10.11-4.06-19.94-8.83l9.2-18.93q9.15,4.44,18.59,8.23Z" transform="translate(-23.83 -19.37)"/><path id="path-64" class="cls-64" d="M254.49,668.82q-9.81-4.77-19.27-10.22l10.51-18.24q8.82,5.08,18,9.53Z" transform="translate(-23.83 -19.37)"/><path id="path-65" class="cls-65" d="M235.22,658.6q-9.45-5.45-18.5-11.55l11.77-17.45q8.43,5.68,17.24,10.76Z" transform="translate(-23.83 -19.37)"/><path id="path-66" class="cls-66" d="M216.72,647.05q-9-6.09-17.64-12.82l13-16.58q8,6.26,16.45,12Z" transform="translate(-23.83 -19.37)"/><path id="path-67" class="cls-67" d="M199.08,634.23q-8.6-6.72-16.7-14l14.09-15.63Q204,611.38,212,617.65Z" transform="translate(-23.83 -19.37)"/><path id="path-68" class="cls-68" d="M275.76,516.66a170.49,170.49,0,0,1-52.08-88.82l98.77-22.47a69.3,69.3,0,0,0,21.15,36.07Z" transform="translate(-23.83 -19.37)"/><path id="path-69" class="cls-69" d="M196.47,604.57q-10.25-9.24-19.58-19.43l87.31-79.95q5.51,6,11.56,11.47Z" transform="translate(-23.83 -19.37)"/><path id="path-70" class="cls-70" d="M176.89,585.14q-9.31-10.18-17.63-21.21l94.53-71.26q4.91,6.51,10.41,12.52Z" transform="translate(-23.83 -19.37)"/><path id="path-71" class="cls-71" d="M159.26,563.93A289,289,0,0,1,120,493l110.61-42.2a170.39,170.39,0,0,0,23.16,41.88Z" transform="translate(-23.83 -19.37)"/><path id="path-72" class="cls-72" d="M142.45,576.6q-6.57-8.72-12.51-17.87l17.66-11.46q5.53,8.54,11.66,16.66Z" transform="translate(-23.83 -19.37)"/><path id="path-73" class="cls-73" d="M129.94,558.73Q124,549.58,118.72,540l18.42-10.19q4.92,8.89,10.46,17.43Z" transform="translate(-23.83 -19.37)"/><path id="path-74" class="cls-74" d="M118.72,540q-5.28-9.56-9.88-19.45l19.09-8.87q4.29,9.23,9.21,18.13Z" transform="translate(-23.83 -19.37)"/><path id="path-75" class="cls-75" d="M108.84,520.58q-4.59-9.9-8.48-20.09L120,493q3.63,9.5,7.91,18.72Z" transform="translate(-23.83 -19.37)"/><path id="path-76" class="cls-76" d="M120,493a289.84,289.84,0,0,1-11.78-38.89l115.44-26.26a170.37,170.37,0,0,0,6.95,23Z" transform="translate(-23.83 -19.37)"/><path id="path-77" class="cls-77" d="M100.36,500.49q-3.89-10.2-7-20.64l20.14-6.1q2.94,9.74,6.57,19.24Z" transform="translate(-23.83 -19.37)"/><path id="path-78" class="cls-78" d="M93.31,479.85q-3.16-10.44-5.59-21.09l20.52-4.66q2.27,9.91,5.21,19.65Z" transform="translate(-23.83 -19.37)"/><path id="path-79" class="cls-79" d="M223.68,427.84a170.49,170.49,0,0,1,1-79.84l98.18,24.94a69.3,69.3,0,0,0-.41,32.43Z" transform="translate(-23.83 -19.37)"/><path id="path-80" class="cls-80" d="M108.24,454.1q-3.06-13.47-4.82-27.16L220.83,411.8q1,8.08,2.85,16Z" transform="translate(-23.83 -19.37)"/><path id="path-81" class="cls-81" d="M103.42,426.94q-1.77-13.69-2.22-27.5l118.32-3.87c.18,5.43.61,10.85,1.31,16.23Z" transform="translate(-23.83 -19.37)"/><path id="path-82" class="cls-82" d="M101.2,399.44a289.17,289.17,0,0,1,8.74-80.6L224.68,348a170.19,170.19,0,0,0-5.16,47.57Z" transform="translate(-23.83 -19.37)"/><path id="path-83" class="cls-83" d="M80.17,400.13q-.36-10.9,0-21.81l21,.79q-.37,10.15,0,20.33Z" transform="translate(-23.83 -19.37)"/><path id="path-84" class="cls-84" d="M80.22,378.32q.41-10.9,1.59-21.76l20.92,2.27q-1.1,10.11-1.48,20.28Z" transform="translate(-23.83 -19.37)"/><path id="path-85" class="cls-85" d="M81.81,356.56Q83,345.72,84.92,335l20.71,3.73q-1.8,10-2.9,20.12Z" transform="translate(-23.83 -19.37)"/><path id="path-86" class="cls-86" d="M84.92,335q1.93-10.74,4.63-21.32l20.39,5.18q-2.5,9.86-4.31,19.87Z" transform="translate(-23.83 -19.37)"/><path id="path-87" class="cls-87" d="M224.68,348a170.79,170.79,0,0,1,24.6-54.41l83.57,57.26a69.47,69.47,0,0,0-10,22.09Z" transform="translate(-23.83 -19.37)"/><path id="path-88" class="cls-88" d="M109.94,318.84a289.88,289.88,0,0,1,21.13-57.1l106.08,52.55A170.58,170.58,0,0,0,224.68,348Z" transform="translate(-23.83 -19.37)"/><path id="path-89" class="cls-89" d="M89.55,313.66q2.69-10.57,6.11-20.94l20,6.61q-3.19,9.65-5.7,19.51Z" transform="translate(-23.83 -19.37)"/><path id="path-90" class="cls-90" d="M95.66,292.72q3.42-10.35,7.57-20.45l19.47,8q-3.87,9.4-7.06,19.07Z" transform="translate(-23.83 -19.37)"/><path id="path-91" class="cls-91" d="M103.23,272.27q4.14-10.09,9-19.87l18.86,9.34q-4.51,9.11-8.37,18.52Z" transform="translate(-23.83 -19.37)"/><path id="path-92" class="cls-92" d="M131.07,261.74a288.81,288.81,0,0,1,20.56-35.06l97.65,66.91a172.07,172.07,0,0,0-12.13,20.7Z" transform="translate(-23.83 -19.37)"/><path id="path-93" class="cls-93" d="M112.21,252.4q4.85-9.78,10.37-19.2l18.15,10.65q-5.14,8.78-9.66,17.89Z" transform="translate(-23.83 -19.37)"/><path id="path-94" class="cls-94" d="M122.58,233.2q5.52-9.4,11.68-18.41l17.37,11.89q-5.76,8.4-10.9,17.17Z" transform="translate(-23.83 -19.37)"/><path id="path-95" class="cls-95" d="M249.28,293.59a170.65,170.65,0,0,1,89.23-66.21L369.09,324a69.23,69.23,0,0,0-36.24,26.89Z" transform="translate(-23.83 -19.37)"/><path id="path-96" class="cls-96" d="M151.63,226.68a289,289,0,0,1,54.74-59.79L281.6,258.3a171.22,171.22,0,0,0-32.32,35.29Z" transform="translate(-23.83 -19.37)"/><path id="path-97" class="cls-97" d="M134.26,214.79q6.17-9,13-17.55l16.48,13.09q-6.33,8-12.07,16.35Z" transform="translate(-23.83 -19.37)"/><path id="path-98" class="cls-98" d="M147.22,197.24q6.78-8.53,14.15-16.59l15.52,14.21q-6.87,7.5-13.19,15.47Z" transform="translate(-23.83 -19.37)"/><path id="path-99" class="cls-99" d="M161.37,180.65q7.37-8.06,15.29-15.56l14.48,15.27q-7.38,7-14.25,14.5Z" transform="translate(-23.83 -19.37)"/><path id="path-100" class="cls-100" d="M176.66,165.09q7.91-7.51,16.34-14.44l13.37,16.24q-7.85,6.47-15.23,13.47Z" transform="translate(-23.83 -19.37)"/><path id="path-101" class="cls-101" d="M206.37,166.89q10.66-8.76,22.12-16.49l66.17,98.16q-6.77,4.56-13.06,9.74Z" transform="translate(-23.83 -19.37)"/><path id="path-102" class="cls-102" d="M228.49,150.4q11.43-7.71,23.58-14.31l56.51,104q-7.15,3.9-13.92,8.45Z" transform="translate(-23.83 -19.37)"/><path id="path-103" class="cls-103" d="M252.07,136.09q12.12-6.59,24.84-12L323.24,233q-7.5,3.19-14.66,7.08Z" transform="translate(-23.83 -19.37)"/><path id="path-104" class="cls-104" d="M276.91,124.1q12.7-5.41,25.87-9.58l35.73,112.86q-7.75,2.46-15.27,5.65Z" transform="translate(-23.83 -19.37)"/><path id="path-105" class="cls-105" d="M338.51,227.38A170.7,170.7,0,0,1,390,219.43v101.3A69.32,69.32,0,0,0,369.09,324Z" transform="translate(-23.83 -19.37)"/><path id="path-106" class="cls-106" d="M302.78,114.52q13.16-4.15,26.67-7.06l24.81,115.75q-8,1.71-15.75,4.17Z" transform="translate(-23.83 -19.37)"/><path id="path-107" class="cls-107" d="M329.45,107.46A289.29,289.29,0,0,1,390,101.05V219.43a171,171,0,0,0-35.74,3.78Z" transform="translate(-23.83 -19.37)"/><path id="path-108" class="cls-108" d="M325,86.88q10.66-2.28,21.47-3.81l3,20.83q-10.08,1.42-20,3.56Z" transform="translate(-23.83 -19.37)"/><path id="path-109" class="cls-109" d="M346.51,83.07q10.8-1.53,21.69-2.3l1.48,21q-10.14.72-20.21,2.14Z" transform="translate(-23.83 -19.37)"/><path id="path-110" class="cls-110" d="M368.2,80.77Q379.09,80,390,80v21q-10.17,0-20.32.71Z" transform="translate(-23.83 -19.37)"/><g class="cls-111"><text class="cls-112" transform="translate(415.56 308.58) rotate(-53.21)">Fruity</text></g><g class="cls-111"><text class="cls-112" transform="matrix(0.15, -0.99, 0.99, 0.15, 395.43, 192.42)">Berry</text></g><g class="cls-111"><text class="cls-113" transform="translate(382.34 57.08) rotate(-87.48)">Blackberry</text></g><g class="cls-111"><text class="cls-114" transform="translate(404.35 58.99) rotate(-83.45)">Raspberry</text></g><g class="cls-111"><text class="cls-115" transform="matrix(0.18, -0.98, 0.98, 0.18, 426.17, 62.45)">Blueberry</text></g><g class="cls-111"><text class="cls-116" transform="translate(447.69 67.43) rotate(-75.39)">Strawberry</text></g><g class="cls-111"><text class="cls-112" transform="translate(432.12 202.51) rotate(-69.34)">Dried fruit</text></g><g class="cls-111"><text class="cls-117" transform="translate(468.81 73.92) rotate(-71.36)">Raisin</text></g><g class="cls-111"><text class="cls-118" transform="matrix(0.39, -0.92, 0.92, 0.39, 489.42, 81.87)">Prune</text></g><g class="cls-111"><text class="cls-112" transform="matrix(0.65, -0.76, 0.76, 0.65, 486.02, 235.54)">Other fruit</text></g><g class="cls-111"><text class="cls-119" transform="translate(509.41 91.25) rotate(-63.29)">Coconut</text></g><g class="cls-111"><text class="cls-120" transform="translate(528.7 102.01) rotate(-59.26)">Cherry</text></g><g class="cls-111"><text class="cls-121" transform="translate(547.19 114.1) rotate(-55.23)">Pomegranate</text></g><g class="cls-111"><text class="cls-122" transform="translate(564.78 127.47) rotate(-51.2)">Pineapple</text></g><g class="cls-111"><text class="cls-123" transform="translate(581.38 142.04) rotate(-47.16)">Grape</text></g><g class="cls-111"><text class="cls-124" transform="translate(596.92 157.73) rotate(-43.13)">Apple</text></g><g class="cls-111"><text class="cls-125" transform="translate(611.32 174.49) rotate(-39.1)">Peach</text></g><g class="cls-111"><text class="cls-126" transform="translate(624.51 192.21) rotate(-35.07)">Pear</text></g><g class="cls-111"><text class="cls-112" transform="translate(530.85 296.52) rotate(-24.99)">Citrus fruit</text></g><g class="cls-111"><text class="cls-127" transform="matrix(0.86, -0.52, 0.52, 0.86, 636.41, 210.82)">Grapefruit</text></g><g class="cls-111"><text class="cls-128" transform="translate(646.98 230.21) rotate(-27)">Orange</text></g><g class="cls-111"><text class="cls-129" transform="translate(656.16 250.31) rotate(-22.97)">Lemon</text></g><g class="cls-111"><text class="cls-130" transform="translate(663.9 270.99) rotate(-18.94)">Lime</text></g><g class="cls-111"><text class="cls-112" transform="translate(445.18 377.5) rotate(3.24)">Sour/Fermented</text></g><g class="cls-111"><text class="cls-112" transform="translate(546.3 357.82) rotate(-4.83)">Sour</text></g><g class="cls-111"><text class="cls-131" transform="matrix(0.97, -0.26, 0.26, 0.97, 670.17, 292.18)">Sour aromatics</text></g><g class="cls-111"><text class="cls-132" transform="translate(674.93 313.75) rotate(-10.88)">Acetic acid</text></g><g class="cls-111"><text class="cls-133" transform="matrix(0.99, -0.12, 0.12, 0.99, 678.17, 335.6)">Butyric acid</text></g><g class="cls-111"><text class="cls-134" transform="translate(679.86 357.62) rotate(-2.81)">Isovaleric acid</text></g><g class="cls-111"><text class="cls-135" transform="translate(680 379.71) rotate(1.22)">Citric acid</text></g><g class="cls-111"><text class="cls-136" transform="translate(678.58 401.76) rotate(5.25)">Malic acid</text></g><g class="cls-111"><text class="cls-112" transform="translate(539.68 420.69) rotate(15.33)">Alcohol/Fermented</text></g><g class="cls-111"><text class="cls-137" transform="matrix(0.99, 0.16, -0.16, 0.99, 675.62, 423.65)">Winey</text></g><g class="cls-111"><text class="cls-138" transform="translate(671.13 445.27) rotate(13.32)">Whiskey</text></g><g class="cls-111"><text class="cls-139" transform="translate(665.12 466.53) rotate(17.35)">Fermented</text></g><g class="cls-111"><text class="cls-140" transform="translate(657.64 487.31) rotate(21.38)">Overripe</text></g><g class="cls-111"><text class="cls-112" transform="translate(419.8 429.05) rotate(45.72)">Green/<tspan class="cls-141" x="36.69" y="0">V</tspan><tspan x="44.03" y="0">egetative</tspan></text></g><g class="cls-111"><text class="cls-112" transform="translate(527.22 452.31) rotate(26.13)">Olive oil</text></g><g class="cls-111"><text class="cls-112" transform="matrix(0.85, 0.52, -0.52, 0.85, 518.7, 467.3)">Raw</text></g><g class="cls-111"><text class="cls-112" transform="matrix(0.66, 0.75, -0.75, 0.66, 484.13, 507.36)">Green/<tspan class="cls-141" x="36.69" y="0">V</tspan><tspan x="44.03" y="0">egetative</tspan></text></g><g class="cls-111"><text class="cls-142" transform="matrix(0.81, 0.59, -0.59, 0.81, 617.58, 558.67)">Under-ripe</text></g><g class="cls-111"><text class="cls-143" transform="matrix(0.76, 0.65, -0.65, 0.76, 603.74, 575.88)">Peapod</text></g><g class="cls-111"><text class="cls-144" transform="translate(588.72 592.08) rotate(44.42)">Fresh</text></g><g class="cls-111"><text class="cls-145" transform="matrix(0.66, 0.75, -0.75, 0.66, 572.6, 607.18)">Dark green</text></g><g class="cls-111"><text class="cls-146" transform="matrix(0.61, 0.79, -0.79, 0.61, 555.45, 621.11)"><tspan class="cls-141">V</tspan><tspan x="7.34" y="0">egetative</tspan></text></g><g class="cls-111"><text class="cls-147" transform="translate(537.37 633.8) rotate(56.52)">Hay-like</text></g><g class="cls-111"><text class="cls-148" transform="matrix(0.49, 0.87, -0.87, 0.49, 518.44, 645.19)">Herb-like</text></g><g class="cls-111"><text class="cls-112" transform="translate(439.44 535.68) rotate(65.3)">Beany</text></g><g class="cls-111"><text class="cls-112" transform="matrix(0.16, -0.99, 0.99, 0.16, 350.89, 478.87)">Other</text></g><g class="cls-111"><text class="cls-112" transform="translate(369.45 551.19) rotate(88.2)">Papery/Musty</text></g><g class="cls-111"><text class="cls-149" transform="translate(471.02 666.56) rotate(70.05)">Stale</text></g><g class="cls-111"><text class="cls-150" transform="translate(449.95 673.2) rotate(74.08)">Cardboard</text></g><g class="cls-111"><text class="cls-151" transform="matrix(0.21, 0.98, -0.98, 0.21, 428.47, 678.35)">Papery</text></g><g class="cls-111"><text class="cls-152" transform="translate(406.68 681.97) rotate(82.15)"><tspan class="cls-153">W</tspan><tspan x="11.11" y="0">oody</tspan></text></g><g class="cls-111"><text class="cls-154" transform="translate(384.69 684.04) rotate(86.18)">Moldy/Damp</text></g><g class="cls-111"><text class="cls-155" transform="translate(362.6 684.57) rotate(90.21)">Musty/Dusty</text></g><g class="cls-111"><text class="cls-156" transform="translate(346.83 754.12) rotate(-86.76)">Musty/Earthy</text></g><g class="cls-111"><text class="cls-157" transform="translate(323.04 727.34) rotate(-82.72)">Animalic</text></g><g class="cls-111"><text class="cls-158" transform="matrix(0.2, -0.98, 0.98, 0.2, 293.1, 748.28)">Meaty/Brothy</text></g><g class="cls-111"><text class="cls-159" transform="translate(273.25 718.42) rotate(-74.66)">Phenolic</text></g><g class="cls-111"><text class="cls-112" transform="translate(254.88 572.6) rotate(-60.55)">Chemical</text></g><g class="cls-111"><text class="cls-160" transform="translate(255 694.03) rotate(-70.63)">Bitter</text></g><g class="cls-111"><text class="cls-161" transform="translate(233.06 684.19) rotate(-66.6)">Salty</text></g><g class="cls-111"><text class="cls-162" transform="translate(200.28 695.36) rotate(-62.56)">Medicinal</text></g><g class="cls-111"><text class="cls-163" transform="translate(175.77 686.31) rotate(-58.53)">Petroleum</text></g><g class="cls-111"><text class="cls-164" transform="translate(162.95 659.65) rotate(-54.5)">Skunky</text></g><g class="cls-111"><text class="cls-165" transform="translate(143.13 644.65) rotate(-50.47)">Rubber</text></g><g class="cls-111"><text class="cls-112" transform="translate(261.01 436.32) rotate(-30.88)">Roasted</text></g><g class="cls-111"><text class="cls-112" transform="translate(193.36 551.24) rotate(-45.72)">Pipe tobacco</text></g><g class="cls-111"><text class="cls-112" transform="matrix(0.76, -0.65, 0.65, 0.76, 195.77, 517.99)"><tspan class="cls-166">T</tspan><tspan x="6" y="0">obacco</tspan></text></g><g class="cls-111"><text class="cls-112" transform="matrix(0.87, -0.49, 0.49, 0.87, 185.12, 475.58)">Burnt</text></g><g class="cls-111"><text class="cls-167" transform="translate(89.68 570.73) rotate(-35.49)">Acrid</text></g><g class="cls-111"><text class="cls-168" transform="matrix(0.85, -0.52, 0.52, 0.85, 76.86, 550.45)">Ashy</text></g><g class="cls-111"><text class="cls-169" transform="translate(56.06 534.27) rotate(-27.43)">Smoky</text></g><g class="cls-111"><text class="cls-170" transform="matrix(0.92, -0.4, 0.4, 0.92, 12.87, 526.1)">Brown, Roast</text></g><g class="cls-111"><text class="cls-112" transform="translate(160.78 437.3) rotate(-17.35)">Cereal</text></g><g class="cls-111"><text class="cls-171" transform="translate(43.08 486.72) rotate(-19.36)">Grain</text></g><g class="cls-111"><text class="cls-172" transform="translate(42.16 461.95) rotate(-15.33)">Malt</text></g><g class="cls-111"><text class="cls-112" transform="translate(250.86 372.58) rotate(0.22)">Spices</text></g><g class="cls-111"><text class="cls-112" transform="matrix(0.98, -0.18, 0.18, 0.98, 145.16, 414.35)">Pungent</text></g><g class="cls-111"><text class="cls-112" transform="translate(147.98 392.54) rotate(-5.11)">Pepper</text></g><g class="cls-111"><text class="cls-112" transform="matrix(1, 0.1, -0.1, 1, 121.21, 348.62)">Brown spice</text></g><g class="cls-111"><text class="cls-173" transform="translate(22.21 375.16) rotate(-0.36)">Anise</text></g><g class="cls-111"><text class="cls-174" transform="translate(10.77 350.2) rotate(3.68)">Nutmeg</text></g><g class="cls-111"><text class="cls-175" transform="translate(0.52 323.56) rotate(7.71)">Cinnamon</text></g><g class="cls-111"><text class="cls-176" transform="translate(28.25 302.85) rotate(11.74)">Clove</text></g><g class="cls-111"><text class="cls-112" transform="matrix(0.91, 0.4, -0.4, 0.91, 232.29, 314.1)">Nutty/Cocoa</text></g><g class="cls-111"><text class="cls-112" transform="translate(169.11 302.22) rotate(19.8)">Nutty</text></g><g class="cls-111"><text class="cls-177" transform="translate(21 275.63) rotate(15.77)">Peanuts</text></g><g class="cls-111"><text class="cls-178" transform="translate(25.41 250.47) rotate(19.8)">Hazelnut</text></g><g class="cls-111"><text class="cls-179" transform="matrix(0.91, 0.4, -0.4, 0.91, 40.8, 229.5)">Almond</text></g><g class="cls-111"><text class="cls-112" transform="translate(178.33 265.46) rotate(29.88)">Cocoa</text></g><g class="cls-111"><text class="cls-180" transform="matrix(0.88, 0.47, -0.47, 0.88, 39.73, 200.74)">Chocolate</text></g><g class="cls-111"><text class="cls-181" transform="matrix(0.85, 0.53, -0.53, 0.85, 30.41, 164.46)">Dark chocolate</text></g><g class="cls-111"><text class="cls-112" transform="matrix(0.6, 0.8, -0.8, 0.6, 296.35, 282.22)">Sweet</text></g><g class="cls-111"><text class="cls-112" transform="matrix(0.74, 0.67, -0.67, 0.74, 180.25, 206.57)">Brown sugar</text></g><g class="cls-111"><text class="cls-182" transform="translate(69.5 158.59) rotate(35.93)">Molasses</text></g><g class="cls-111"><text class="cls-183" transform="matrix(0.77, 0.64, -0.64, 0.77, 68.78, 124.54)">Mapple syrup</text></g><g class="cls-111"><text class="cls-184" transform="matrix(0.72, 0.69, -0.69, 0.72, 90.19, 107.49)">Caramelized</text></g><g class="cls-111"><text class="cls-185" transform="matrix(0.67, 0.74, -0.74, 0.67, 131.22, 113.03)">Honey</text></g><g class="cls-111"><text class="cls-112" transform="matrix(0.6, 0.8, -0.8, 0.6, 233.78, 200.31)"><tspan class="cls-186">V</tspan><tspan x="7.11" y="0">anilla</tspan></text></g><g class="cls-111"><text class="cls-112" transform="translate(249.22 186.19) rotate(58.25)"><tspan class="cls-186">V</tspan><tspan x="7.11" y="0">anillin</tspan></text></g><g class="cls-111"><text class="cls-112" transform="translate(251.89 144.59) rotate(63.72)">Overall sweet</text></g><g class="cls-111"><text class="cls-112" transform="translate(268.05 119.14) rotate(69.2)">Sweet<tspan class="cls-141" x="33.35" y="0"> </tspan><tspan x="36.02" y="0">Aromatics</tspan></text></g><g class="cls-111"><text class="cls-112" transform="translate(346.17 263.17) rotate(80.72)">Floral</text></g><g class="cls-111"><text class="cls-112" transform="translate(302.41 147.15) rotate(74.67)">Black<tspan class="cls-153" x="29.34" y="0"> </tspan><tspan class="cls-166" x="32.46" y="0">T</tspan><tspan x="38.46" y="0">ea</tspan></text></g><g class="cls-111"><text class="cls-112" transform="matrix(0.11, 0.99, -0.99, 0.11, 339.77, 161.7)">Floral</text></g><g class="cls-111"><text class="cls-187" transform="translate(295.02 2.8) rotate(79.42)">Chamomile</text></g><g class="cls-111"><text class="cls-188" transform="matrix(0.11, 0.99, -0.99, 0.11, 324.78, 31.16)">Rose</text></g><g class="cls-111"><text class="cls-189" transform="translate(348.02 12.44) rotate(87.48)">Jasmine</text></g></svg>